<?xml version="1.0" encoding="UTF-8"?>
<svg id="Layer_2" data-name="Layer 2" xmlns="http://www.w3.org/2000/svg" viewBox="0 0 399 399">
  <defs>
    <style>
      .cls-1 {
        fill: none;
      }

      .cls-2 {
        fill: #2740e4;
      }
    </style>
  </defs>
  <g id="Layer_1-2" data-name="Layer 1">
    <path class="cls-1" d="M0,0h399v399l-398.93-.07L0,0ZM251.68,153.38l27.85-35.5,28.01-35.83,4.67-6.43-.15-20.84-225.29.08v289.28s225.32.06,225.32.06l-.04-21.47-32.61-41.76-63.89-81.6,36.12-46Z"/>
    <path class="cls-2" d="M279.44,280.98l-63.89-81.6,36.12-46,27.85-35.5,28.01-35.83,4.67-6.43-.15-20.84-225.29.08v289.28s225.32.06,225.32.06l-.04-21.47-32.61-41.76ZM279.67,76.09l-38.25,50.71-31.7,41.58c-3.31,3.95-5.11,8.18-8.84,10.77-2.79-2.77-4.85-5.5-7.27-8.7l-71.26-94.41,157.32.05ZM175.54,185.34c.66.86,1.2,1.01,1.38,1.74.27,1.15-.38,1.51-2.15,2.19-7.02-.16-13.42-.77-20.19-.09l-42.74.02-.04-87.55,63.74,83.7ZM111.87,209.81c5.6-.13,10.55-.02,15.84,0l36.59.11c4.25.01,8.43-1.6,13.24.81l-37.93,50.4c-2.02,2.68-3.68,4.85-5.73,7.5l-22.06,28.47.04-87.29ZM122.41,322.88l76.3-101.08c.52-.69,1.54-1.13,1.84-1.45.36-.39,1.53.25,2.1.99l35.28,46.24,3.83,5.03,37.96,50.33-157.32-.07Z"/>
  </g>
</svg>