<?xml version="1.0" encoding="UTF-8"?>
<svg id="Layer_2" data-name="Layer 2" xmlns="http://www.w3.org/2000/svg" viewBox="0 0 284.29 284.29">
  <defs>
    <style>
      .cls-1 {
        fill: none;
      }

      .cls-2 {
        fill: #dd3503;
      }
    </style>
  </defs>
  <g id="Layer_1-2" data-name="Layer 1">
    <path class="cls-1" d="M0,284.02V0h284.29v284.29H0v-.28ZM174.92,86.32l-.06-36.83-10.91-10.89-22.09,22.08-22.16-22.15-10.95,10.92v36.97s30.1,30.17,30.1,30.17c1.94.37,3.63.25,5.73.13l30.33-30.41ZM145.11,175.11c-1.95,2.12.12,4.26,1.54,5.75,1.56,1.62,3.93,3.4,5.89,1.49l5.62-5.45,8.41,8.24c-11.8,16.05-8.99,38.08,5.8,50.65,14.75,12.54,36.7,11.68,50.36-1.8s14.88-36.06,2.2-50.85c-12.64-14.75-34.54-17.5-50.59-5.79l-8.11-8.11,5.47-5.7c1.99-2.07.02-4.47-1.65-6.09-1.5-1.45-3.68-3.51-5.64-1.65l-5.99,5.65-8.71-8.89,45.98-45.99,18.53,18.36.19-19.15,19.24-.06-18.45-18.63,18.14-18.32c1.74-1.75.19-4.97-2-5.94-.5-1.68-3.89-3.46-5.46-1.88l-84.03,83.91L57.82,60.96c-1.7-1.69-5.12.42-5.71,2.15-1.88.7-3.42,3.89-1.91,5.42l18.31,18.59-18.34,18.5,19.15.19.06,19.23,18.66-18.47,46.05,46.11-8.8,8.77-5.71-5.5c-2.01-1.94-4.31-.1-5.91,1.49s-3.65,4-1.63,6.1l5.48,5.7-8.16,8.13c-16.17-11.84-38.22-8.94-50.81,6.08-12.4,14.79-11.4,36.85,2.46,50.53s35.98,14.37,50.65,1.54,17.23-34.44,5.53-50.39l8.2-8.23,5.8,5.44c2.02,1.9,4.32.11,5.9-1.48s3.38-3.88,1.48-5.9l-5.44-5.8,8.74-8.7,8.72,8.7-5.49,5.95Z"/>
    <path class="cls-2" d="M145.11,175.11l5.49-5.95-8.72-8.7-8.74,8.7,5.44,5.8c1.9,2.03.11,4.32-1.48,5.9s-3.88,3.38-5.9,1.48l-5.8-5.44-8.2,8.23c11.7,15.95,9,37.7-5.53,50.39s-36.89,12.03-50.65-1.54-14.86-35.74-2.46-50.53c12.6-15.02,34.65-17.92,50.81-6.08l8.16-8.13-5.48-5.7c-2.02-2.1,0-4.46,1.63-6.1s3.89-3.43,5.91-1.49l5.71,5.5,8.8-8.77-46.05-46.11-18.66,18.47-.06-19.23-19.15-.19,18.34-18.5-18.31-18.59c-1.51-1.53.03-4.72,1.91-5.42.59-1.73,4.02-3.84,5.71-2.15l84.05,83.92,84.03-83.91c1.58-1.57,4.97.2,5.46,1.88,2.19.98,3.73,4.19,2,5.94l-18.14,18.32,18.45,18.63-19.24.06-.19,19.15-18.53-18.36-45.98,45.99,8.71,8.89,5.99-5.65c1.96-1.85,4.14.2,5.64,1.65,1.67,1.62,3.63,4.02,1.65,6.09l-5.47,5.7,8.11,8.11c16.05-11.71,37.95-8.96,50.59,5.79,12.67,14.79,11.78,37.04-2.2,50.85s-35.6,14.34-50.36,1.8c-14.79-12.57-17.59-34.6-5.8-50.65l-8.41-8.24-5.62,5.45c-1.97,1.91-4.34.13-5.89-1.49-1.43-1.49-3.5-3.63-1.54-5.75ZM99.58,219.79c7.15,2.42,13.24.54,17-4.74,3.46-4.87,3.27-11.59-.76-16.36-3.83-4.54-10.01-6.13-16.37-3.51,2.47-6.36,1.02-12.89-3.92-16.72s-12-3.85-16.92.19-6.23,10.29-3.58,16.59c-6.41-2.76-12.86-1.04-16.68,3.68-4.05,5-3.9,11.78-.27,16.63,3.92,5.24,10.44,6.54,16.91,4.11-2.75,6.5-.95,13.05,4.05,16.86s11.82,3.59,16.63-.33c4.8-3.91,6.13-10.04,3.91-16.39ZM208.91,219.74c6.92,2.44,13.28.68,17-4.55s3.32-11.77-.8-16.59c-3.9-4.56-10.14-6.03-16.38-3.36,2.73-6.43,1.06-12.94-3.92-16.85s-11.94-3.78-16.91.32c-4.71,3.88-6.03,10.24-3.6,16.51-6.48-2.76-12.83-.97-16.64,3.78s-3.81,11.67-.24,16.39c3.96,5.25,10.29,6.78,16.91,4.25-2.63,6.61-.89,12.92,4.07,16.77,4.96,3.84,11.76,3.68,16.62-.17s6.22-10.12,3.91-16.51Z"/>
    <path class="cls-2" d="M174.92,86.32l-30.33,30.41c-2.1.12-3.79.24-5.73-.13l-30.11-30.17v-36.97s10.95-10.92,10.95-10.92l22.16,22.15,22.09-22.08,10.91,10.89.06,36.83ZM139,101.03l.08-35.39-19.34-19.25-.03,35.56,19.3,19.08ZM144.69,101.01l19.22-19.1-.06-35.41-19.32,19.32.16,35.19Z"/>
  </g>
</svg>